<svg viewBox="0 0 24 24" fill="none" xmlns="http://www.w3.org/2000/svg">
<path d="M21.08 8.58003V15.42C21.08 16.54 20.48 17.58 19.51 18.15L13.57 21.58C12.6 22.14 11.4 22.14 10.42 21.58L4.47998 18.15C3.50998 17.59 2.90997 16.55 2.90997 15.42V8.58003C2.90997 7.46003 3.50998 6.41999 4.47998 5.84999L10.42 2.42C11.39 1.86 12.59 1.86 13.57 2.42L19.51 5.84999C20.48 6.41999 21.08 7.45003 21.08 8.58003Z" stroke="currentColor" stroke-width="1.5" stroke-linecap="round" stroke-linejoin="round"/>
<path d="M8.6532 13.142H10.3932V17.192C10.3932 17.792 11.1332 18.072 11.5332 17.622L15.7932 12.782C16.1632 12.362 15.8632 11.702 15.3032 11.702H13.5632V7.65195C13.5632 7.05195 12.8232 6.77195 12.4232 7.22195L8.1632 12.062C7.7932 12.482 8.0932 13.142 8.6532 13.142Z" stroke="currentColor" stroke-width="1.5" stroke-miterlimit="10" stroke-linecap="round" stroke-linejoin="round"/>
</svg>
