<svg width="24" height="24" viewBox="0 0 24 24" fill="none" xmlns="http://www.w3.org/2000/svg">
<path fill-rule="evenodd" clip-rule="evenodd" d="M12 2C17.5234 2 22 6.47656 22 12C22 17.5234 17.5234 22 12 22C6.47656 22 2 17.5234 2 12C2 6.47656 6.47656 2 12 2Z" fill="url(#paint0_radial_202_522)"/>
<path d="M8.3555 9.72269C10.3672 7.75784 13.6328 7.75784 15.6446 9.72269L15.8867 9.96097C15.9883 10.0586 15.9883 10.2188 15.8867 10.3164L15.0586 11.125C15.0078 11.1758 14.9258 11.1758 14.875 11.125L14.543 10.8008C13.1367 9.42972 10.8633 9.42972 9.45706 10.8008L9.10159 11.1485C9.05081 11.1992 8.96878 11.1992 8.918 11.1485L8.08987 10.3399C7.98831 10.2422 7.98831 10.0821 8.08987 9.98441L8.3555 9.72269ZM17.3594 11.3946L18.0977 12.1133C18.1992 12.211 18.1992 12.3711 18.0977 12.4688L14.7735 15.7149C14.6719 15.8125 14.5078 15.8125 14.4102 15.7149L12.0508 13.4102C12.0274 13.3867 11.9844 13.3867 11.961 13.4102L9.60159 15.7149C9.50003 15.8125 9.33597 15.8125 9.23831 15.7149L5.90237 12.4688C5.80081 12.3711 5.80081 12.211 5.90237 12.1133L6.64066 11.3946C6.74222 11.2969 6.90628 11.2969 7.00394 11.3946L9.36331 13.6992C9.38675 13.7227 9.42972 13.7227 9.45315 13.6992L11.8125 11.3946C11.9141 11.2969 12.0782 11.2969 12.1758 11.3946L14.5352 13.6992C14.5586 13.7227 14.6016 13.7227 14.625 13.6992L16.9844 11.3946C17.0938 11.2969 17.2578 11.2969 17.3594 11.3946Z" fill="white"/>
<defs>
<radialGradient id="paint0_radial_202_522" cx="0" cy="0" r="1" gradientUnits="userSpaceOnUse" gradientTransform="translate(2.00006 12.0003) scale(20)">
<stop stop-color="#5D9DF6"/>
<stop offset="1" stop-color="#006FFF"/>
</radialGradient>
</defs>
</svg>
